<?xml version="1.0" encoding="utf-8"?>
<!DOCTYPE svg PUBLIC "-//W3C//DTD SVG 1.1//EN" "http://www.w3.org/Graphics/SVG/1.1/DTD/svg11.dtd">
<svg version="1.1" id="ic_id5" xmlns="http://www.w3.org/2000/svg" xmlns:xlink="http://www.w3.org/1999/xlink" x="0px" y="0px"
	 width="45px" height="45px" viewBox="0 0 45 45" enable-background="new 0 0 45 45" xml:space="preserve">
<path fill="#FFFFFF" d="M26.517,25.68c-0.092-0.111-0.229-0.177-0.373-0.18c-0.146,0.012-0.282,0.057-0.381,0.163
	c-1.38,1.516-3.408,2.601-6.027,3.226c-0.237,0.056-0.482,0.114-0.576,0.355l-2.843,5.333c-0.082,0.155-0.078,0.342,0.013,0.492
	c0.091,0.151,0.253,0.243,0.429,0.243h13c0.007,0,0.015,0,0.02,0c0.276,0,0.5-0.224,0.5-0.5c0-0.084-0.021-0.163-0.057-0.233
	C29.333,30.343,27.247,26.557,26.517,25.68z M17.591,34.312l2.373-4.45c0.001-0.001,0.002-0.001,0.003-0.001
	c2.562-0.61,4.611-1.646,6.103-3.08c0.742,1.171,2.271,4.099,3.068,7.531H17.591z"/>
<path fill="#FFFFFF" d="M29.484,12.072c-1.18-1.837-2.991-3.1-5.239-3.651c-3.076-0.756-5.753,0.368-5.818,0.399
	c-0.055,0.017-5.4,1.776-4.73,8.578c-0.319,0.938-1.074,2.361-1.476,2.964c-0.128,0.192-0.107,0.448,0.05,0.617
	c0.047,0.052,0.445,0.46,1.247,0.697c0.291,1.198,1.494,5.387,4.114,5.603c0.126,0.011,0.266,0.016,0.417,0.016
	c2.451,0,7.993-1.434,9.11-6.695c0.205-0.049,0.487-0.131,0.835-0.269c0.53-0.209,0.996-0.713,1.279-1.381
	c0.32-0.76,0.348-1.572,0.073-2.229c-0.288-0.691-0.733-0.958-1.056-1.06c-0.757-0.234-1.478,0.197-1.557,0.248
	c-0.232,0.148-0.302,0.457-0.153,0.69c0.148,0.232,0.458,0.301,0.69,0.153c0.08-0.051,0.438-0.225,0.72-0.138
	c0.175,0.055,0.32,0.22,0.433,0.49c0.169,0.404,0.142,0.948-0.072,1.455c-0.173,0.41-0.451,0.732-0.725,0.841
	c-0.592,0.233-0.94,0.272-0.939,0.272c-0.227,0.021-0.41,0.19-0.448,0.414c-0.883,5.188-6.556,6.338-8.525,6.195
	c-1.867-0.154-3.006-3.746-3.287-5.117c-0.041-0.195-0.193-0.349-0.39-0.389c-0.321-0.066-0.564-0.171-0.733-0.266
	c0.44-0.745,1.087-1.996,1.378-2.906c0.021-0.066,0.028-0.137,0.021-0.206c-0.648-6.055,3.834-7.564,4.07-7.643
	c0.024-0.01,2.493-1.037,5.234-0.365c2.022,0.497,3.582,1.581,4.636,3.221c1.051,1.638,1.471,4.284,1.131,5.469
	c-0.563,1.963-2.174,2.982-2.19,2.992c-0.145,0.09-0.234,0.247-0.237,0.417l-0.032,1.907c-0.005,0.276,0.216,0.504,0.491,0.509
	c0.316-0.015,0.504-0.216,0.509-0.491l0.027-1.65c0.539-0.397,1.853-1.524,2.394-3.408C31.141,16.939,30.728,14.011,29.484,12.072z"
	/>
</svg>
