<?xml version="1.0" encoding="utf-8"?>
<!DOCTYPE svg PUBLIC "-//W3C//DTD SVG 1.1//EN" "http://www.w3.org/Graphics/SVG/1.1/DTD/svg11.dtd">
<svg version="1.1" id="图层_1" xmlns="http://www.w3.org/2000/svg" xmlns:xlink="http://www.w3.org/1999/xlink" x="0px" y="0px"
	 width="36px" height="36px" viewBox="0 0 36 36" enable-background="new 0 0 36 36" xml:space="preserve">
<path fill-rule="evenodd" clip-rule="evenodd" fill="#FFFFFF" d="M25.5,7h-15c-0.552,0-1,0.44-1,0.982V26.23
	c0,0.543,0.448,0.982,1,0.982h1.723v3.295c0,0.189,0.111,0.361,0.285,0.443s0.381,0.059,0.53-0.061l1.162-0.922l1.163,0.922
	C15.453,30.963,15.564,31,15.677,31c0.074,0,0.147-0.016,0.216-0.049c0.174-0.082,0.284-0.254,0.284-0.443v-3.295H25.5
	c0.552,0,1-0.439,1-0.982V7.982C26.5,7.439,26.052,7,25.5,7z M15.177,29.48l-0.662-0.527c-0.183-0.145-0.445-0.145-0.63,0
	l-0.662,0.527v-2.268h1.954V29.48z M11.5,25.248h13V8.964h-13V25.248z"/>
<path fill-rule="evenodd" clip-rule="evenodd" fill="#FFFFFF" d="M13.999,17h8.002c0.276,0,0.499-0.204,0.499-0.459v-4.083
	c0-0.253-0.223-0.458-0.499-0.458h-8.002c-0.275,0-0.499,0.206-0.499,0.458v4.083C13.5,16.795,13.724,17,13.999,17z M14.498,16.083
	h7.004v-3.166h-7.004V16.083z"/>
</svg>
