<?xml version="1.0" encoding="utf-8"?>
<!DOCTYPE svg PUBLIC "-//W3C//DTD SVG 1.1//EN" "http://www.w3.org/Graphics/SVG/1.1/DTD/svg11.dtd">
<svg version="1.1" id="图层_1" xmlns="http://www.w3.org/2000/svg" xmlns:xlink="http://www.w3.org/1999/xlink" x="0px" y="0px"
	 width="36px" height="36px" viewBox="0 0 36 36" enable-background="new 0 0 36 36" xml:space="preserve">
<path fill-rule="evenodd" clip-rule="evenodd" fill="#FFFFFF" d="M29.521,23.068c-0.244,0-0.477,0.037-0.703,0.092l-7.443-11.417
	c0.387-0.504,0.625-1.127,0.625-1.812c0-1.657-1.344-3-3-3c-1.658,0-3,1.343-3,3c0,0.281,0.051,0.547,0.123,0.804l-6.066,4.276
	c-0.698-0.593-1.59-0.964-2.576-0.964c-2.209,0-4,1.79-4,4.003c0,2.209,1.791,4,4,4c1.367,0,2.574-0.689,3.295-1.738l15.748,5.73
	c0,0.01-0.002,0.018-0.002,0.025c0,1.658,1.342,3,3,3c1.656,0,3-1.342,3-3C32.521,24.412,31.177,23.068,29.521,23.068
	 M11.212,16.643l6.056-4.269c0.489,0.348,1.085,0.557,1.731,0.557c0.242,0,0.477-0.037,0.701-0.091l7.346,11.263L11.44,18.428
	c0.012-0.126,0.039-0.248,0.039-0.378C11.479,17.553,11.378,17.083,11.212,16.643"/>
</svg>
