<?xml version="1.0" encoding="utf-8"?>
<!DOCTYPE svg PUBLIC "-//W3C//DTD SVG 1.1//EN" "http://www.w3.org/Graphics/SVG/1.1/DTD/svg11.dtd">
<svg version="1.1" id="图层_1" xmlns="http://www.w3.org/2000/svg" xmlns:xlink="http://www.w3.org/1999/xlink" x="0px" y="0px"
	 width="36px" height="36px" viewBox="0 0 36 36" enable-background="new 0 0 36 36" xml:space="preserve">
<path fill-rule="evenodd" clip-rule="evenodd" fill="#FFFFFF" d="M17.223,12.188c-0.998-0.258-2.03-0.249-3,0.002V6h3V12.188z
	 M21.504,16.395c-0.268-0.965-0.777-1.864-1.498-2.599l5.358-3.095l1.5,2.598L21.504,16.395z M14.223,23.812
	c0.998,0.258,2.029,0.248,3-0.002V30h-3V23.812z M9.942,19.605c0.268,0.965,0.775,1.864,1.498,2.599l-5.359,3.095l-1.5-2.598
	L9.942,19.605z M11.44,13.796c-0.346,0.354-0.654,0.756-0.913,1.204s-0.454,0.917-0.587,1.394l-5.359-3.095l1.5-2.598L11.44,13.796z
	 M28.224,23.031l5.195,3l-1.5,2.598l-5.195-3l-1.75,3.031l-7.893-10.33L29.974,20L28.224,23.031z"/>
</svg>
